<svg width="42" height="42" viewBox="0 0 42 42" fill="none" xmlns="http://www.w3.org/2000/svg">
<mask id="mask0" mask-type="alpha" maskUnits="userSpaceOnUse" x="0" y="0" width="42" height="42">
<rect width="42" height="42" fill="#C4C4C4"/>
</mask>
<g mask="url(#mask0)">
<path d="M19.8751 32.9216V32.7216H19.6751H0.2V2.2H41.8V32.7216H22.1455H21.9455V32.9216V37.4624V37.6624H22.1455H34.4699V39.8H7.53008V37.6624H19.6751H19.8751V37.4624V32.9216ZM39.5296 30.5839H39.7296V30.3839V27.058V26.858H39.5296H22.2366H22.0366V27.058V28.521H19.9662V27.058V26.858H19.7662H2.47042H2.27042V27.058V30.3839V30.5839H2.47042H39.5296ZM2.27042 24.5204V24.7204H2.47042H39.5296H39.7296V24.5204V4.53764V4.33764H39.5296H2.47042H2.27042V4.53764V24.5204Z" fill="#EB5C24" stroke="white" stroke-width="0.4"/>
<path d="M11.4962 15.2581V15.4581H11.6962H16.1002V16.5269C16.1002 19.7284 13.5653 22.3242 10.461 22.3242C7.35664 22.3242 4.8217 19.7284 4.8217 16.5269C4.8217 13.3249 7.35666 10.7287 10.461 10.7287H11.4962V15.2581ZM13.7818 17.8675L13.8866 17.5956H13.5952H9.42575V13.3072V13.0101L9.15048 13.1219C7.82718 13.6595 6.89213 14.9846 6.89213 16.5268C6.89213 18.5398 8.48793 20.1865 10.461 20.1865C11.9708 20.1865 13.2604 19.2212 13.7818 17.8675Z" fill="#EB5C24" stroke="white" stroke-width="0.4"/>
<path d="M15.4451 11.2014V11.4014H15.6451H17.5443H17.8356L17.7309 11.1295C17.3691 10.1899 16.6384 9.43823 15.7204 9.06534L15.4451 8.95352V9.25063V11.2014ZM13.3747 13.5391V6.67217H14.4099C17.5142 6.67217 20.0492 9.26828 20.0492 12.4703V13.5391H13.3747Z" fill="#EB5C24" stroke="white" stroke-width="0.4"/>
<path d="M24.1658 11.4823H26.2362V14.6389H24.1658V11.4823Z" fill="#EB5C24" stroke="white" stroke-width="0.4"/>
<path d="M24.1658 7.56292H26.2362V8.97894H24.1658V7.56292Z" fill="#EB5C24" stroke="white" stroke-width="0.4"/>
<path d="M29.1067 11.4823H31.1772V14.6389H29.1067V11.4823Z" fill="#EB5C24" stroke="white" stroke-width="0.4"/>
<path d="M29.1067 7.56292H31.1772V8.97894H29.1067V7.56292Z" fill="#EB5C24" stroke="white" stroke-width="0.4"/>
<path d="M34.0475 11.4823H36.118V14.6389H34.0475V11.4823Z" fill="#EB5C24" stroke="white" stroke-width="0.4"/>
<path d="M34.0475 7.56292H36.118V8.97894H34.0475V7.56292Z" fill="#EB5C24" stroke="white" stroke-width="0.4"/>
<path d="M31.8856 19.1279L31.9993 19.1944L32.1053 19.1163L35.4262 16.6686L36.6373 18.4024L32.1275 21.7262L29.2173 20.0239L29.1134 19.9631L29.0111 20.0264L25.9072 21.9462L24.8353 20.1174L29.0843 17.4893L31.8856 19.1279Z" fill="#EB5C24" stroke="white" stroke-width="0.4"/>
</g>
</svg>
