<svg width="42" height="42" viewBox="0 0 42 42" fill="none" xmlns="http://www.w3.org/2000/svg">
<mask id="mask0" mask-type="alpha" maskUnits="userSpaceOnUse" x="0" y="0" width="42" height="42">
<rect width="42" height="42" fill="#C4C4C4"/>
</mask>
<g mask="url(#mask0)">
<path d="M19.8751 32.9216V32.7216H19.6751H0.2V2.2H41.8V32.7216H22.1455H21.9455V32.9216V37.4624V37.6624H22.1455H34.4699V39.8H7.53008V37.6624H19.6751H19.8751V37.4624V32.9216ZM39.5296 30.5839H39.7296V30.3839V27.058V26.858H39.5296H22.2366H22.0366V27.058V28.521H19.9662V27.058V26.858H19.7662H2.47042H2.27042V27.058V30.3839V30.5839H2.47042H39.5296ZM2.27042 24.5204V24.7204H2.47042H39.5296H39.7296V24.5204V4.53764V4.33764H39.5296H2.47042H2.27042V4.53764V24.5204Z" fill="#EB5C24" stroke="white" stroke-width="0.4"/>
<path d="M9.17101 18.0606C9.35012 17.8828 9.64237 17.8828 9.82154 18.0606C10.0007 18.2383 10.0007 18.5282 9.82154 18.7059L8.15526 20.3606C7.97437 20.5383 7.68389 20.5383 7.50472 20.3606L6.44203 19.3064C6.26286 19.1286 6.26286 18.8387 6.44203 18.661C6.62292 18.4833 6.9134 18.4833 7.09429 18.661L7.82999 19.3909L9.17101 18.0606ZM9.17101 8.97428C9.35012 8.79654 9.64237 8.79654 9.82154 8.97428C10.0007 9.15202 10.0007 9.44188 9.82154 9.61956L8.15526 11.2725C7.97437 11.452 7.68389 11.452 7.50472 11.2725L6.44203 10.22C6.26286 10.0423 6.26286 9.75238 6.44203 9.57464C6.62292 9.39696 6.9134 9.39696 7.09429 9.57464L7.82999 10.3045L9.17101 8.97428ZM13.3993 17.7155C13.1453 17.7155 12.9384 17.5119 12.9384 17.26C12.9384 17.0081 13.1453 16.8027 13.3993 16.8027H37.3408C37.5948 16.8027 37.8 17.0081 37.8 17.26C37.8 17.5119 37.5948 17.7155 37.3408 17.7155H13.3993ZM13.3993 21.6167C13.1453 21.6167 12.9384 21.4131 12.9384 21.1612C12.9384 20.9093 13.1453 20.704 13.3993 20.704H35.4728C35.7267 20.704 35.9337 20.9093 35.9337 21.1612C35.9337 21.4132 35.7267 21.6167 35.4728 21.6167H13.3993ZM13.3993 19.667C13.1453 19.667 12.9384 19.4617 12.9384 19.2097C12.9384 18.9578 13.1453 18.7542 13.3993 18.7542H37.3408C37.5948 18.7542 37.8 18.9578 37.8 19.2097C37.8 19.4616 37.5948 19.667 37.3408 19.667H13.3993ZM13.3993 8.62921C13.1453 8.62921 12.9384 8.4256 12.9384 8.17372C12.9384 7.92178 13.1453 7.71646 13.3993 7.71646H37.3408C37.5948 7.71646 37.8 7.92178 37.8 8.17372C37.8 8.42566 37.5948 8.62921 37.3408 8.62921H13.3993ZM13.3993 12.5305C13.1453 12.5305 12.9384 12.3269 12.9384 12.075C12.9384 11.8213 13.1453 11.6177 13.3993 11.6177H35.4728C35.7267 11.6177 35.9337 11.8213 35.9337 12.075C35.9337 12.3269 35.7267 12.5305 35.4728 12.5305H13.3993ZM13.3993 10.5806C13.1453 10.5806 12.9384 10.3753 12.9384 10.1234C12.9384 9.87144 13.1453 9.66789 13.3993 9.66789H37.3408C37.5948 9.66789 37.8 9.8715 37.8 10.1234C37.8 10.3753 37.5948 10.5806 37.3408 10.5806H13.3993ZM4.20001 7.07112C4.20001 6.60522 4.58615 6.22217 5.05402 6.22217H11.2095C11.6791 6.22217 12.0653 6.60522 12.0653 7.07112V13.1775C12.0653 13.6434 11.6791 14.0246 11.2095 14.0246H5.05402C4.58437 14.0246 4.20001 13.6434 4.20001 13.1775V7.07112ZM11.1434 7.13668H5.1201V13.1119H11.1434V7.13668ZM4.20001 16.1574C4.20001 15.6915 4.58437 15.3102 5.05402 15.3102H11.2095C11.6809 15.3102 12.0653 15.6897 12.0653 16.1574V22.2638C12.0653 22.7297 11.6809 23.1111 11.2095 23.1111H5.05402C4.58437 23.1111 4.20001 22.7297 4.20001 22.2638V16.1574ZM11.1434 16.223H5.1201V22.1983H11.1434V16.223Z" fill="#EB5C24"/>
</g>
</svg>
