<svg width="42" height="42" viewBox="0 0 42 42" fill="none" xmlns="http://www.w3.org/2000/svg">
<mask id="mask0" mask-type="alpha" maskUnits="userSpaceOnUse" x="0" y="0" width="42" height="42">
<rect width="42" height="42" fill="#C4C4C4"/>
</mask>
<g mask="url(#mask0)">
<path d="M41.919 22.9248C41.5419 19.1615 39.8474 15.6137 37.1473 12.9348C34.8399 10.6456 32.0157 9.1745 29.044 8.52038V6.45246C30.2578 6.15287 31.16 5.06283 31.16 3.76721C31.16 2.24134 29.9088 1 28.3709 1H22.4645C20.9266 1 19.6754 2.24134 19.6754 3.76721C19.6754 5.06275 20.5776 6.15279 21.7913 6.45246V8.52616C18.8287 9.18304 16.0138 10.6521 13.713 12.9349C13.2094 13.4345 12.7451 13.9585 12.3201 14.5032C12.2995 14.5016 12.2789 14.5001 12.2579 14.5001H6.41223C5.95925 14.5001 5.59191 14.8644 5.59191 15.314C5.59191 15.7635 5.95925 16.1278 6.41223 16.1278H11.2039C10.6025 17.1269 10.1175 18.1761 9.74833 19.2561H0.820325C0.367341 19.2561 0 19.6205 0 20.07C0 20.5195 0.367341 20.8839 0.820325 20.8839H9.28476C9.04835 21.9135 8.91266 22.9614 8.87764 24.0122H5.25008C4.7971 24.0122 4.42975 24.3766 4.42975 24.8261C4.42975 25.2756 4.7971 25.64 5.25008 25.64H8.90381C8.97304 26.6935 9.14375 27.7414 9.41602 28.7683H4.10162C3.64864 28.7683 3.2813 29.1327 3.2813 29.5822C3.2813 30.0317 3.64864 30.3961 4.10162 30.3961H9.93955C10.7443 32.5082 12.0019 34.4878 13.713 36.1854C16.4156 38.8668 19.9952 40.5485 23.7921 40.9206C24.334 40.9737 24.8763 41 25.4179 41C28.619 41 31.7794 40.0809 34.461 38.3483C34.8407 38.103 34.9481 37.5988 34.7008 37.2221C34.4536 36.8454 33.9454 36.7389 33.5657 36.9842C27.6957 40.7767 19.8343 39.9567 14.8731 35.0344C9.05188 29.2589 9.05188 19.8615 14.8731 14.086C20.6942 8.31056 30.1659 8.31056 35.9872 14.086C40.9418 19.0018 41.7728 26.7949 37.963 32.6159C37.7162 32.9929 37.8243 33.497 38.2042 33.7418C38.5843 33.9866 39.0923 33.8794 39.3389 33.5024C41.3745 30.3922 42.2908 26.6357 41.919 22.9248ZM21.3161 3.76729C21.3161 3.13897 21.8312 2.62785 22.4645 2.62785H28.3709C29.0041 2.62785 29.5193 3.13897 29.5193 3.76729C29.5193 4.39561 29.0041 4.90673 28.3709 4.90673H28.2237H22.6116H22.4645C21.8312 4.90673 21.3161 4.39553 21.3161 3.76729ZM23.4319 8.24634V6.5345H27.4034V8.24341C26.0846 8.0878 24.7504 8.08877 23.4319 8.24634Z" fill="#EB5C24"/>
<path d="M36.5676 34.7955C36.3511 34.7955 36.1402 34.8826 35.9877 35.034C35.8343 35.1854 35.7473 35.3954 35.7473 35.6094C35.7473 35.8235 35.8343 36.0334 35.9877 36.1848C36.1402 36.337 36.3511 36.4233 36.5676 36.4233C36.7834 36.4233 36.9942 36.337 37.1476 36.1848C37.3002 36.0334 37.3879 35.8235 37.3879 35.6094C37.3879 35.3954 37.3002 35.1854 37.1476 35.034C36.9942 34.8826 36.7833 34.7955 36.5676 34.7955Z" fill="#EB5C24"/>
<path d="M25.4302 11.9344C18.4133 11.9344 12.7046 17.5982 12.7046 24.5601C12.7046 31.522 18.4133 37.1858 25.4302 37.1858C32.4471 37.1858 38.1558 31.522 38.1558 24.5601C38.1558 17.5982 32.4471 11.9344 25.4302 11.9344ZM25.4302 35.558C19.3179 35.558 14.3452 30.6244 14.3452 24.5601C14.3452 18.4958 19.3179 13.5622 25.4302 13.5622C31.5425 13.5622 36.5152 18.4958 36.5152 24.5601C36.5152 30.6244 31.5425 35.558 25.4302 35.558Z" fill="#EB5C24"/>
<path d="M30.6191 18.2607L26.5561 22.2918C26.2163 22.1251 25.8341 22.0309 25.4301 22.0309C25.026 22.0309 24.6439 22.1251 24.3041 22.2918L22.4857 20.4877C22.1653 20.1698 21.646 20.1698 21.3255 20.4877C21.0052 20.8055 21.0052 21.3208 21.3255 21.6387L23.1439 23.4428C22.9758 23.7799 22.881 24.1591 22.881 24.5599C22.881 25.9544 24.0245 27.089 25.4301 27.089C26.8357 27.089 27.9792 25.9544 27.9792 24.5599C27.9792 24.1591 27.8843 23.7799 27.7163 23.4428L31.6601 19.53L31.7792 19.4117C32.0996 19.0939 32.0996 18.5785 31.7792 18.2607C31.4589 17.9429 30.9396 17.9429 30.6191 18.2607ZM25.4301 25.4613C24.9292 25.4613 24.5217 25.057 24.5217 24.56C24.5217 24.0631 24.9292 23.6587 25.4301 23.6587C25.931 23.6587 26.3385 24.0631 26.3385 24.56C26.3385 25.057 25.931 25.4613 25.4301 25.4613Z" fill="#EB5C24"/>
<path d="M34.2009 23.756H33.4409C32.9879 23.756 32.6206 24.1204 32.6206 24.5699C32.6206 25.0194 32.9879 25.3838 33.4409 25.3838H34.2009C34.6539 25.3838 35.0212 25.0194 35.0212 24.5699C35.0212 24.1204 34.6539 23.756 34.2009 23.756Z" fill="#EB5C24"/>
<path d="M17.4193 23.7363H16.6594C16.2064 23.7363 15.8391 24.1007 15.8391 24.5502C15.8391 24.9997 16.2064 25.3641 16.6594 25.3641H17.4193C17.8723 25.3641 18.2396 24.9997 18.2396 24.5502C18.2396 24.1007 17.8723 23.7363 17.4193 23.7363Z" fill="#EB5C24"/>
<path d="M25.4401 17.4259C25.8931 17.4259 26.2604 17.0615 26.2604 16.612V15.8581C26.2604 15.4086 25.8931 15.0442 25.4401 15.0442C24.9871 15.0442 24.6198 15.4086 24.6198 15.8581V16.612C24.6198 17.0615 24.9871 17.4259 25.4401 17.4259Z" fill="#EB5C24"/>
<path d="M25.4201 31.6942C24.9671 31.6942 24.5998 32.0586 24.5998 32.5081V33.2621C24.5998 33.7116 24.9671 34.0759 25.4201 34.0759C25.8731 34.0759 26.2404 33.7116 26.2404 33.2621V32.5081C26.2404 32.0586 25.8731 31.6942 25.4201 31.6942Z" fill="#EB5C24"/>
<path d="M0.820312 28.768C0.60457 28.768 0.392929 28.8551 0.240351 29.0065C0.0877734 29.1578 0 29.3678 0 29.5819C0 29.7967 0.0876914 30.0059 0.240351 30.1573C0.393012 30.3087 0.60457 30.3957 0.820312 30.3957C1.03605 30.3957 1.24769 30.3087 1.40019 30.1573C1.55277 30.0059 1.64062 29.7959 1.64062 29.5819C1.64062 29.3678 1.55285 29.1578 1.40019 29.0065C1.24769 28.8551 1.03605 28.768 0.820312 28.768Z" fill="#EB5C24"/>
</g>
</svg>
