<svg width="42" height="42" viewBox="0 0 42 42" fill="none" xmlns="http://www.w3.org/2000/svg">
<mask id="mask0" mask-type="alpha" maskUnits="userSpaceOnUse" x="0" y="0" width="42" height="42">
<rect width="42" height="42" fill="#C4C4C4"/>
</mask>
<g mask="url(#mask0)">
<path d="M30.2026 0H11.7974C9.70119 0.002275 8.00235 1.64885 8 3.6806V38.3194C8.00235 40.3512 9.70119 41.9977 11.7974 42H30.2026C32.2988 41.9977 33.9977 40.3512 34 38.3194V3.6806C33.9977 1.64885 32.2988 0.002275 30.2026 0ZM32.5556 38.3194C32.5539 39.5783 31.5014 40.5984 30.2026 40.6H11.7974C10.4986 40.5984 9.44607 39.5783 9.44444 38.3194V36.4H32.5556V38.3194ZM32.5556 35H9.44444V7.7H32.5556V35ZM32.5556 6.3H9.44444V3.6806C9.44607 2.42174 10.4986 1.40157 11.7974 1.4H30.2026C31.5014 1.40157 32.5539 2.42174 32.5556 3.6806V6.3Z" fill="#EB5C24"/>
<path d="M23.1667 3.5H15.9445V4.9H23.1667V3.5Z" fill="#EB5C24"/>
<path d="M22.4444 37.8H19.5555V39.2H22.4444V37.8Z" fill="#EB5C24"/>
<path d="M10.8889 10.5V18.9H21V10.5H10.8889ZM19.5556 17.5H12.3334V11.9H19.5556V17.5Z" fill="#EB5C24"/>
<path d="M31.1111 10.5H22.4445V11.9H31.1111V10.5Z" fill="#EB5C24"/>
<path d="M25.3333 13.2999H22.4445V14.6999H25.3333V13.2999Z" fill="#EB5C24"/>
<path d="M31.1112 13.2999H26.7778V14.6999H31.1112V13.2999Z" fill="#EB5C24"/>
<path d="M31.1111 16.1001H22.4445V17.5001H31.1111V16.1001Z" fill="#EB5C24"/>
<path d="M10.8889 20.3V28.7H21V20.3H10.8889ZM19.5556 27.3H12.3334V21.7H19.5556V27.3Z" fill="#EB5C24"/>
<path d="M31.1111 20.3H22.4445V21.7H31.1111V20.3Z" fill="#EB5C24"/>
<path d="M25.3333 23.1H22.4445V24.5H25.3333V23.1Z" fill="#EB5C24"/>
<path d="M31.1112 23.1H26.7778V24.5H31.1112V23.1Z" fill="#EB5C24"/>
<path d="M31.1111 25.8999H22.4445V27.2999H31.1111V25.8999Z" fill="#EB5C24"/>
<path d="M23.8888 32.2H15.2222V33.6H23.8888V32.2Z" fill="#EB5C24"/>
<path d="M25.3334 29.4V33.6H31.1112V29.4H25.3334ZM29.6667 32.2H26.7778V30.8H29.6667V32.2Z" fill="#EB5C24"/>
<path d="M26.0555 3.5H24.6111V4.9H26.0555V3.5Z" fill="#EB5C24"/>
</g>
</svg>
