<svg width="42" height="42" viewBox="0 0 42 42" fill="none" xmlns="http://www.w3.org/2000/svg">
<path d="M32.1892 17.5179C32.1892 9.41536 25.6207 2.84717 17.5182 2.84717C9.41569 2.84717 2.8475 9.41536 2.8475 17.5179C2.8475 25.6204 9.41569 32.1889 17.5182 32.1889C25.6167 32.1796 32.1796 25.6167 32.1892 17.5179ZM4.24468 17.5179C4.24468 10.1873 10.1876 4.24435 17.5182 4.24435C24.8491 4.24435 30.7917 10.1873 30.7917 17.5179C30.7917 24.8487 24.8491 30.7917 17.5182 30.7917C10.1909 30.7831 4.25294 24.8454 4.24468 17.5179Z" fill="#EB5C24"/>
<path d="M37.6947 33.7431L37.6933 33.7411L37.6914 33.7395L36.2116 32.2597C35.9505 31.9966 35.5949 31.8489 35.2245 31.8499H35.2232C35.1022 31.8516 34.9819 31.8691 34.8656 31.9018L33.1099 30.1461C33.2398 29.6663 33.1039 29.1534 32.7533 28.8008L31.6793 27.7222C37.0116 20.3272 35.7697 10.0767 28.8258 4.16909C21.8819 -1.73851 11.565 -1.32181 5.12007 5.12643C-1.32485 11.5747 -1.73627 21.8919 4.17496 28.8328C10.0859 35.7738 20.337 37.0104 27.7294 31.6745L28.8007 32.7531C29.15 33.1096 29.6662 33.2464 30.146 33.1093L31.9017 34.8654C31.7649 35.3452 31.9021 35.8617 32.259 36.2103L33.7401 37.6911L33.7414 37.6931L33.7434 37.6944L37.1996 41.1507C37.9019 41.8747 38.9395 42.1639 39.915 41.9078C40.8905 41.6516 41.6522 40.8899 41.9083 39.9144C42.1644 38.9392 41.875 37.9013 41.1513 37.1994L37.6947 33.7431ZM1.45033 17.518C1.44505 10.4385 6.07411 4.18958 12.8482 2.13181C19.6222 0.0743797 26.9449 2.6926 30.878 8.57905C34.8114 14.4655 34.4287 22.2326 29.9358 27.7037C29.919 27.7245 29.9018 27.7446 29.8849 27.7651C29.2475 28.5328 28.5406 29.24 27.7733 29.8778C27.7482 29.8986 27.7231 29.9197 27.698 29.9405C22.8967 33.8813 16.2535 34.6998 10.6394 32.0429C5.02523 29.3857 1.4467 23.7292 1.45033 17.518ZM29.1193 30.5585C29.2525 30.4399 29.3827 30.3186 29.5122 30.196C29.7481 29.9726 29.9778 29.7429 30.2012 29.5066C30.3225 29.3784 30.4428 29.2495 30.5601 29.1177C30.6447 29.0229 30.7362 28.9346 30.8188 28.8378L31.7643 29.7875L31.7656 29.7895L29.7898 31.7653V31.7657L28.8437 30.8136C28.9388 30.7323 29.0258 30.6418 29.1193 30.5585ZM32.2593 31.2713L33.7411 32.7531L32.7533 33.7408L31.2716 32.259L32.2593 31.2713ZM35.2232 33.2468L36.2112 34.2352L34.2354 36.211L33.2474 35.2226L35.2232 33.2468ZM40.1632 40.1629C39.6103 40.6907 38.7402 40.6907 38.1874 40.1629L35.2235 37.1987L37.199 35.2232L40.1632 38.1871C40.4252 38.4488 40.5723 38.8044 40.5723 39.1749C40.5723 39.5453 40.4252 39.9009 40.1632 40.1629Z" fill="#EB5C24"/>
<path d="M20.872 27.0751C21.2256 26.5368 21.6446 26.0451 22.1198 25.6109C23.2249 24.7289 23.7979 23.34 23.6366 21.9352C24.4311 21.3688 24.972 20.5142 25.1442 19.5542C25.4198 17.1806 24.7698 16.8762 24.5249 16.7615C24.3775 16.6925 24.2169 16.6555 24.054 16.6532C24.055 16.5388 24.052 16.4122 24.0514 16.293C25.6432 15.5455 26.6002 14.5085 26.6002 13.3264C26.6002 11.8942 25.2202 10.6603 22.8181 9.89297C22.638 8.95645 22.3568 8.04207 21.9801 7.1657C21.8109 6.78997 21.4847 6.50775 21.0885 6.39441C20.6923 6.28106 20.266 6.34814 19.9239 6.57781C19.8132 6.65216 19.6926 6.74106 19.5608 6.83722C18.9934 7.34778 18.2779 7.66337 17.5182 7.73739C16.7588 7.66337 16.0427 7.34778 15.4756 6.83689C15.3441 6.74073 15.2232 6.65216 15.1125 6.57781C14.7704 6.34814 14.3445 6.28106 13.9486 6.39408C13.5524 6.50742 13.2265 6.78963 13.0577 7.16504C12.6803 8.04141 12.3991 8.95612 12.2186 9.89297C9.81621 10.6603 8.43622 11.8942 8.43622 13.3264C8.43622 14.5085 9.39356 15.5455 10.9854 16.2926C10.9847 16.4116 10.9814 16.5378 10.9824 16.6522C10.8195 16.6548 10.6592 16.6921 10.5118 16.7615C10.2666 16.8762 9.61662 17.1806 9.89486 19.5777C10.0723 20.5288 10.6116 21.3741 11.4001 21.9349C11.2385 23.3396 11.8115 24.7286 12.9166 25.6109C13.3921 26.0451 13.8111 26.5368 14.1644 27.0751C14.7245 27.8715 15.3038 28.6957 16.6901 28.6957H18.3463C19.7329 28.6957 20.3119 27.8715 20.872 27.0751ZM12.4113 17.5517C12.3981 17.3187 12.3862 17.0814 12.3822 16.8253C13.5742 17.174 14.8018 17.3878 16.0417 17.4624C16.1088 17.4674 16.1759 17.4717 16.2433 17.476C16.4049 17.4856 16.5662 17.4952 16.7307 17.5011C16.7608 17.5021 16.7899 17.5054 16.8199 17.5064V18.5381C16.1587 18.8206 15.4419 18.9495 14.7238 18.9151C13.7682 18.894 12.8924 18.3775 12.4113 17.5517ZM18.2168 17.5064C18.2472 17.5054 18.2759 17.5021 18.306 17.5011C18.4706 17.4952 18.6318 17.4856 18.7934 17.476C18.8612 17.4717 18.9279 17.4674 18.995 17.4624C20.2349 17.3878 21.4626 17.174 22.6545 16.8253C22.6506 17.0814 22.639 17.3187 22.6254 17.5517C22.144 18.3775 21.2682 18.8937 20.3129 18.9151C19.5948 18.9488 18.8787 18.821 18.2168 18.5407V17.5064ZM14.3349 7.73904C14.4304 7.80315 14.5348 7.87949 14.6482 7.96243C15.4502 8.65772 16.4588 9.0698 17.5182 9.1349C18.5777 9.0698 19.5865 8.65805 20.3886 7.96276C20.5016 7.87949 20.606 7.80315 20.7078 7.74235C21.1066 8.68845 21.3879 9.68015 21.5452 10.695C21.57 10.8467 21.5894 10.997 21.6083 11.1474C21.6218 11.2535 21.6374 11.3579 21.6483 11.4663C21.6688 11.6698 21.6813 11.8708 21.6912 12.0704C21.6939 12.1252 21.7002 12.1784 21.7021 12.2336C20.6272 12.8139 19.4471 13.1744 18.231 13.294C17.9997 13.3149 17.7618 13.3264 17.5182 13.3264C16.8431 13.3238 16.1706 13.2389 15.5156 13.0736C14.7562 12.8846 14.0236 12.6021 13.3343 12.232C13.3359 12.1774 13.3422 12.1249 13.3448 12.0707C13.3551 11.8701 13.3676 11.6689 13.3881 11.4646C13.399 11.3569 13.4146 11.2531 13.4281 11.1477C13.447 10.9974 13.4668 10.8467 13.4909 10.695C13.6482 9.67817 13.9317 8.68514 14.3349 7.73904ZM9.83373 13.3264C9.83373 12.6748 10.6503 11.9792 11.984 11.4488C11.9797 11.495 11.9814 11.5393 11.9777 11.5852C11.9493 11.9293 11.9295 12.2762 11.9295 12.6278C11.9295 12.8615 12.0461 13.0796 12.2405 13.2091C13.8306 14.1813 15.6544 14.7048 17.5182 14.7236C19.382 14.7048 21.2058 14.1813 22.796 13.2091C22.9903 13.0796 23.1072 12.8615 23.1072 12.6278C23.1072 12.2762 23.0871 11.9293 23.059 11.5849C23.0554 11.539 23.0567 11.495 23.0527 11.4488C24.3864 11.9792 25.203 12.6748 25.203 13.3264C25.203 13.9781 24.3974 14.6688 23.0534 15.2001C22.9605 15.2371 22.862 15.2705 22.7656 15.3055C21.371 15.7771 19.9153 16.0438 18.4441 16.0967C18.4028 16.0986 18.3625 16.1023 18.3209 16.1043C18.0578 16.1152 17.7902 16.1205 17.5182 16.1208C17.2462 16.1211 16.9789 16.1155 16.7159 16.1043C16.6739 16.1023 16.6336 16.0986 16.5923 16.0967C15.1211 16.0438 13.6654 15.7771 12.2709 15.3055C12.1747 15.2705 12.0759 15.2371 11.9834 15.2001C10.6391 14.6688 9.83373 13.9788 9.83373 13.3264ZM15.3071 26.2711C14.8914 25.6419 14.398 25.0676 13.8389 24.5613C12.7166 23.5749 12.7556 22.7822 12.8102 21.685L12.8158 21.572C12.8273 21.3242 12.7067 21.0886 12.4992 20.9531C12.4579 20.926 12.4136 20.9035 12.3673 20.8863C11.8069 20.5681 11.4107 20.0238 11.2798 19.393C11.2382 19.0318 11.2233 18.668 11.2352 18.3048C11.9708 19.5344 13.2913 20.2945 14.7238 20.3126C15.6871 20.3566 16.6465 20.1646 17.5182 19.7529C18.3903 20.1646 19.3496 20.3566 20.3129 20.3126C21.7454 20.2941 23.0659 19.5341 23.8012 18.3045C23.8131 18.6584 23.7996 19.0123 23.7606 19.3642C23.6366 20.0066 23.2378 20.5628 22.6691 20.8863C22.6228 20.9035 22.5788 20.926 22.5375 20.9531C22.3297 21.0886 22.2094 21.3242 22.221 21.572L22.2266 21.685C22.2811 22.7818 22.3198 23.5749 21.1975 24.5613C20.6384 25.0676 20.145 25.6419 19.7293 26.2711C19.1811 27.0517 18.9768 27.2985 18.3463 27.2985H16.6901C16.0596 27.2985 15.8557 27.0517 15.3071 26.2711Z" fill="#EB5C24"/>
<path d="M20.1087 23.3144C19.837 23.0421 19.3965 23.0398 19.1222 23.3095C18.8777 23.5626 18.5621 23.7358 18.2168 23.8055C17.8311 23.8055 17.5182 24.1181 17.5182 24.5041C17.5182 24.89 17.8311 25.2027 18.2168 25.2027C18.9339 25.1329 19.603 24.8131 20.108 24.2995C20.3803 24.0276 20.3803 23.5864 20.1087 23.3144Z" fill="#EB5C24"/>
</svg>
