<svg width="42" height="42" viewBox="0 0 42 42" fill="none" xmlns="http://www.w3.org/2000/svg">
<mask id="mask0" mask-type="alpha" maskUnits="userSpaceOnUse" x="0" y="0" width="42" height="42">
<rect width="42" height="42" fill="#C4C4C4"/>
</mask>
<g mask="url(#mask0)">
<path d="M14.2143 12.0092C9.71712 12.0092 6.07141 15.8568 6.07141 20.6031C6.07141 25.3493 9.71712 29.197 14.2143 29.197C18.7114 29.197 22.3571 25.3493 22.3571 20.6031C22.3571 15.8568 18.7114 12.0092 14.2143 12.0092ZM20.2406 17.3803H17.3059C17.0252 15.8961 16.5869 14.6965 16.1393 13.7709C17.9326 14.3357 19.4046 15.648 20.2406 17.3803ZM16.25 20.6031C16.25 21.2424 16.2046 21.8297 16.1422 22.3935H12.2865C12.2239 21.8297 12.1785 21.2423 12.1785 20.6031C12.1785 19.9634 12.2232 19.3762 12.2852 18.8127H16.1436C16.2053 19.3762 16.25 19.9635 16.25 20.6031ZM14.0168 13.4624C14.0837 13.4604 14.1467 13.4415 14.2143 13.4415C14.2825 13.4415 14.3457 13.4607 14.4137 13.4628C14.9229 14.2873 15.5422 15.5917 15.9172 17.3803H12.5115C12.8882 15.5856 13.5098 14.2818 14.0168 13.4624ZM12.2892 13.7709C11.8432 14.6945 11.4046 15.8955 11.1236 17.3803H8.18796C9.02396 15.648 10.496 14.336 12.2892 13.7709ZM7.42855 20.6031C7.42855 19.9813 7.52762 19.3883 7.66945 18.8127H10.9175C10.8608 19.3799 10.8214 19.9698 10.8214 20.6031C10.8214 21.2367 10.8619 21.8259 10.9195 22.3935H7.66945C7.52762 21.8178 7.42855 21.2249 7.42855 20.6031ZM8.18796 23.8258H11.1269C11.4106 25.3133 11.8495 26.5233 12.2873 27.4346C10.495 26.8694 9.02362 25.5574 8.18796 23.8258ZM14.4114 27.7437C14.3445 27.7458 14.2819 27.7646 14.2143 27.7646C14.1467 27.7646 14.0841 27.7458 14.0168 27.7437C13.5304 26.9541 12.8969 25.6468 12.5133 23.8258H15.9154C15.5323 25.6456 14.8994 26.9523 14.4114 27.7437ZM16.1419 27.4346C16.5803 26.5224 17.019 25.3134 17.3019 23.8258H20.2406C19.4049 25.5573 17.9338 26.8692 16.1419 27.4346ZM17.5094 22.3935C17.5667 21.8259 17.6071 21.2367 17.6071 20.6031C17.6071 19.9698 17.568 19.3799 17.5113 18.8127H20.7591C20.9009 19.3883 21 19.9813 21 20.6031C21 21.2249 20.9009 21.8178 20.7591 22.3935H17.5094Z" fill="#EB5C24"/>
<path d="M21 33.494H7.42859V34.9263H21V33.494Z" fill="#EB5C24"/>
<path d="M30.448 23.1767L29.7452 25.9436L31.0561 26.3144L31.7588 23.5475L30.448 23.1767Z" fill="#EB5C24"/>
<path d="M29.0425 28.7079L26.584 38.392L27.8948 38.7627L30.3534 29.0786L29.0425 28.7079Z" fill="#EB5C24"/>
<path d="M37.9874 4.54689L22.2568 0.0982927C22.0215 0.0317795 21.7852 0 21.5527 0C20.3542 8.95198e-05 19.2576 0.844172 18.9325 2.12395L17.5138 7.71231H3.35714C2.60766 7.71231 2 8.35354 2 9.14463V37.791C2 38.582 2.60766 39.2233 3.35714 39.2233H19.0322L28.5037 41.9017C28.739 41.9682 28.9751 42 29.2078 42C30.4062 42 31.5029 41.1558 31.8279 39.8761L39.9068 8.05526C40.2949 6.52716 39.4354 4.95635 37.9874 4.54689ZM3.35714 37.791V9.14463H23.7143C24.4627 9.14463 25.0714 9.7872 25.0714 10.5769V36.3586C25.0714 37.1484 24.4627 37.791 23.7143 37.791H3.35714ZM38.5961 7.68456L30.5172 39.5054C30.3581 40.1309 29.8198 40.5678 29.2077 40.5678C29.0898 40.5678 28.9711 40.5511 28.8549 40.5182L24.1224 39.1799C25.4261 38.9708 26.4285 37.7932 26.4285 36.3587V25.0037L27.1236 25.2003L27.8263 22.4332L26.5152 22.0625L26.4285 22.4048V11.0225C26.8515 11.1422 27.3399 11.2803 27.8134 11.4142L29.4184 16.9521L30.542 17.2699L30.4356 12.1557C31.1734 12.3645 31.9269 12.5774 32.4206 12.7171L33.293 14.3407L34.0421 14.5525L33.9133 12.2919L35.0958 10.402L34.3467 10.1902L32.8222 11.136C32.3282 10.9964 31.5751 10.7834 30.8369 10.5746L33.352 6.20193L32.2285 5.88414L28.215 9.83321C27.4257 9.61004 26.5646 9.36637 26.0981 9.23459C25.6409 8.33277 24.7506 7.7124 23.7142 7.7124H18.9185L20.2431 2.49483C20.4022 1.86935 20.9406 1.4325 21.5526 1.43241C21.6705 1.43241 21.7892 1.44906 21.9054 1.482L37.6362 5.9306C37.9864 6.02961 38.2789 6.26665 38.4602 6.59797C38.6415 6.92919 38.6898 7.31511 38.5961 7.68456Z" fill="#EB5C24"/>
<path d="M30.0947 19.3905L29.7476 20.7751L31.0372 21.1353L31.3844 19.7507L30.0947 19.3905Z" fill="#EB5C24"/>
<path d="M32.6705 20.1127L32.3234 21.4972L33.613 21.8574L33.9601 20.4728L32.6705 20.1127Z" fill="#EB5C24"/>
<path d="M27.5191 18.6705L27.172 20.0551L28.4616 20.4152L28.8088 19.0307L27.5191 18.6705Z" fill="#EB5C24"/>
</g>
</svg>
